<?xml version="1.0" encoding="UTF-8" standalone="no"?>
<!-- Created with Inkscape (http://www.inkscape.org/) -->

<svg
   version="1.1"
   id="svg1"
   width="2942.0188"
   height="676.97778"
   viewBox="0 0 2942.0188 676.97778"
   sodipodi:docname="Codejeem write B.svg"
   xml:space="preserve"
   inkscape:export-filename="Codejeem write LWB.png"
   inkscape:export-xdpi="96"
   inkscape:export-ydpi="96"
   inkscape:version="1.4.2 (f4327f4, 2025-05-13)"
   xmlns:inkscape="http://www.inkscape.org/namespaces/inkscape"
   xmlns:sodipodi="http://sodipodi.sourceforge.net/DTD/sodipodi-0.dtd"
   xmlns:xlink="http://www.w3.org/1999/xlink"
   xmlns="http://www.w3.org/2000/svg"
   xmlns:svg="http://www.w3.org/2000/svg"><defs
     id="defs1"><linearGradient
       id="linearGradient9"
       inkscape:collect="always"><stop
         style="stop-color:#ff7700;stop-opacity:1;"
         offset="0"
         id="stop8" /><stop
         style="stop-color:#e53900;stop-opacity:1;"
         offset="1"
         id="stop9" /></linearGradient><linearGradient
       id="linearGradient100"
       inkscape:collect="always"><stop
         style="stop-color:#0088ff;stop-opacity:1;"
         offset="0"
         id="stop100" /><stop
         style="stop-color:#0057cc;stop-opacity:1;"
         offset="1"
         id="stop101" /></linearGradient><linearGradient
       id="linearGradient98"
       inkscape:collect="always"><stop
         style="stop-color:#ff7700;stop-opacity:1;"
         offset="0"
         id="stop98" /><stop
         style="stop-color:#e53900;stop-opacity:1;"
         offset="1"
         id="stop99" /></linearGradient><linearGradient
       inkscape:collect="always"
       xlink:href="#linearGradient98"
       id="linearGradient99"
       x1="1617.6172"
       y1="1693.0154"
       x2="1599.2228"
       y2="2443.3098"
       gradientUnits="userSpaceOnUse" /><linearGradient
       inkscape:collect="always"
       xlink:href="#linearGradient100"
       id="linearGradient101"
       x1="1631.6656"
       y1="474.04706"
       x2="1631.0575"
       y2="2792.2798"
       gradientUnits="userSpaceOnUse"
       gradientTransform="matrix(0.28553292,0,0,0.28553292,-32.184663,1127.7833)" /><linearGradient
       inkscape:collect="always"
       xlink:href="#linearGradient9"
       id="linearGradient5"
       gradientUnits="userSpaceOnUse"
       x1="1617.6173"
       y1="1693.0154"
       x2="1599.2228"
       y2="2443.3098"
       gradientTransform="matrix(1.0660176,0,0,1.0650293,-108.48061,-163.61381)" /><linearGradient
       inkscape:collect="always"
       xlink:href="#linearGradient100"
       id="linearGradient7"
       gradientUnits="userSpaceOnUse"
       x1="1631.6656"
       y1="474.04706"
       x2="1631.0575"
       y2="2792.2798"
       gradientTransform="matrix(1.052701,0,0,1.0352712,-75.986417,-58.767062)" /><linearGradient
       inkscape:collect="always"
       xlink:href="#linearGradient98"
       id="linearGradient2"
       x1="1632.6703"
       y1="1839.4271"
       x2="1632.6703"
       y2="2297.2495"
       gradientUnits="userSpaceOnUse" /><linearGradient
       inkscape:collect="always"
       xlink:href="#linearGradient100"
       id="linearGradient8"
       x1="1631.9731"
       y1="680.47803"
       x2="1631.9731"
       y2="2583.5552"
       gradientUnits="userSpaceOnUse" /><linearGradient
       inkscape:collect="always"
       xlink:href="#linearGradient100"
       id="linearGradient11"
       x1="1622.4524"
       y1="728.90076"
       x2="1622.4524"
       y2="2537.46"
       gradientUnits="userSpaceOnUse"
       gradientTransform="matrix(0.28553292,0,0,0.28553292,-32.184663,1127.7833)" /><linearGradient
       inkscape:collect="always"
       xlink:href="#linearGradient100"
       id="linearGradient14"
       gradientUnits="userSpaceOnUse"
       x1="1631.6656"
       y1="474.04706"
       x2="1631.0575"
       y2="2792.2798"
       gradientTransform="matrix(0.28553292,0,0,0.28553292,2382.6563,1127.7839)" /><linearGradient
       inkscape:collect="always"
       xlink:href="#linearGradient100"
       id="linearGradient15"
       gradientUnits="userSpaceOnUse"
       x1="1622.4524"
       y1="728.90076"
       x2="1622.4524"
       y2="2537.46"
       gradientTransform="matrix(0.28553292,0,0,0.28553292,2382.6563,1127.7839)" /><linearGradient
       inkscape:collect="always"
       xlink:href="#linearGradient98"
       id="linearGradient26"
       x1="1713.126"
       y1="1584.626"
       x2="1713.126"
       y2="1707.9756"
       gradientUnits="userSpaceOnUse" /><linearGradient
       inkscape:collect="always"
       xlink:href="#linearGradient98"
       id="linearGradient28"
       x1="1713.126"
       y1="1584.626"
       x2="1713.126"
       y2="1707.9756"
       gradientUnits="userSpaceOnUse" /></defs><sodipodi:namedview
     id="namedview1"
     pagecolor="#fbf7f6"
     bordercolor="#999999"
     borderopacity="1"
     inkscape:showpageshadow="2"
     inkscape:pageopacity="0"
     inkscape:pagecheckerboard="0"
     inkscape:deskcolor="#d1d1d1"
     showgrid="false"
     inkscape:export-bgcolor="#ffffff00"
     inkscape:zoom="0.18472111"
     inkscape:cx="1523.919"
     inkscape:cy="1800.0108"
     inkscape:window-width="1920"
     inkscape:window-height="974"
     inkscape:window-x="-11"
     inkscape:window-y="-11"
     inkscape:window-maximized="1"
     inkscape:current-layer="g1"
     showguides="false"><inkscape:page
       x="0"
       y="0"
       width="2942.0188"
       height="676.97778"
       id="page2"
       margin="0"
       bleed="0" /></sodipodi:namedview><g
     inkscape:groupmode="layer"
     inkscape:label="Image"
     id="g1"
     transform="translate(-167.4698,-1255.6333)"><rect
       style="display:none;fill:#fbf7f6;stroke:none;stroke-width:15;stroke-linecap:round;stroke-linejoin:round;stroke-dasharray:none;stroke-opacity:1;paint-order:stroke fill markers"
       id="rect6"
       width="2200"
       height="2700"
       x="532"
       y="282"
       ry="154.13388" /><path
       style="font-weight:500;font-size:550px;line-height:30.8;font-family:Quicksand;-inkscape-font-specification:'Quicksand Medium';fill:#fbf7f6;fill-opacity:1;stroke:#fbf7f6;stroke-width:15;stroke-linecap:round;stroke-linejoin:round;stroke-opacity:1;paint-order:stroke fill markers"
       d="m 2626.4003,1492.5753 q 37.4,0 60.5,19.25 23.65,18.7 31.35,53.35 h -8.25 l 3.85,-9.9 q 6.6,-15.4 22.55,-29.7 15.95,-14.3 36.85,-23.65 20.9,-9.35 43.45,-9.35 36.3,0 57.2,15.95 20.9,15.4 29.7,41.8 9.35,25.85 9.35,58.3 v 150.15 q 0,9.35 -6.6,15.95 -6.05,6.6 -15.4,6.6 -9.9,0 -15.95,-6.6 -6.05,-6.6 -6.05,-15.95 v -149.05 q 0,-21.45 -6.6,-38.5 -6.05,-17.6 -20.35,-27.5 -13.75,-10.45 -37.95,-10.45 -22.55,0 -41.25,10.45 -18.7,9.9 -29.7,27.5 -11,17.05 -11,38.5 v 149.05 q 0,9.35 -6.05,15.95 -6.05,6.6 -15.95,6.6 -9.35,0 -15.95,-6.6 -6.05,-6.6 -6.05,-15.95 v -150.7 q 0,-20.9 -6.05,-37.4 -5.5,-17.05 -19.25,-26.95 -13.75,-10.45 -37.95,-10.45 -22,0 -40.15,10.45 -18.15,9.9 -29.15,26.95 -11,16.5 -11,37.4 v 150.7 q 0,9.35 -6.6,15.95 -6.05,6.6 -15.4,6.6 -9.35,0 -15.95,-6.6 -6.05,-6.6 -6.05,-15.95 v -239.8 q 0,-9.35 6.05,-15.4 6.6,-6.6 15.95,-6.6 9.9,0 15.95,6.6 6.05,6.05 6.05,15.4 v 41.8 l -12.1,13.2 q 2.2,-14.3 11,-28.6 9.35,-14.3 23.65,-26.4 14.3,-12.1 31.9,-19.25 17.6,-7.15 37.4,-7.15 z"
       id="path22" /><path
       style="font-weight:500;font-size:550px;line-height:30.8;font-family:Quicksand;-inkscape-font-specification:'Quicksand Medium';fill:#fbf7f6;fill-opacity:1;stroke:#fbf7f6;stroke-width:15;stroke-linecap:round;stroke-linejoin:round;stroke-opacity:1;paint-order:stroke fill markers"
       d="m 2306.8502,1786.8253 q -44,0 -77,-18.7 -33,-18.7 -51.7,-51.15 -18.15,-33 -18.15,-75.9 0,-47.85 18.7,-81.4 19.25,-34.1 49.5,-51.7 30.8,-18.15 64.9,-18.15 25.3,0 48.95,9.35 23.65,9.35 41.8,27.5 18.15,17.6 29.15,42.9 11,24.75 11.55,55.55 0,8.8 -6.6,14.85 -6.6,6.05 -15.4,6.05 h -217.25 l -9.9,-37.95 h 211.75 l -8.8,7.7 v -12.1 q -2.2,-22.55 -15.4,-38.5 -12.65,-16.5 -31.35,-25.3 -18.15,-8.8 -38.5,-8.8 -16.5,0 -33,6.05 -15.95,5.5 -29.15,18.7 -12.65,12.65 -20.9,33 -7.7,20.35 -7.7,48.95 0,31.9 12.65,56.1 13.2,24.2 36.3,38.5 23.1,13.75 53.9,13.75 19.25,0 33.55,-4.95 14.3,-4.95 24.75,-12.1 10.45,-7.7 17.6,-15.4 7.15,-4.95 13.75,-4.95 8.25,0 13.2,5.5 5.5,5.5 5.5,13.2 0,9.35 -8.8,16.5 -15.4,17.05 -41.8,30.25 -26.4,12.65 -56.1,12.65 z"
       id="path21" /><path
       style="font-weight:500;font-size:550px;line-height:30.8;font-family:Quicksand;-inkscape-font-specification:'Quicksand Medium';fill:#fbf7f6;fill-opacity:1;stroke:#fbf7f6;stroke-width:15;stroke-linecap:round;stroke-linejoin:round;stroke-opacity:1;paint-order:stroke fill markers"
       d="m 1991.7002,1786.8253 q -44,0 -77,-18.7 -33,-18.7 -51.7,-51.15 -18.15,-33 -18.15,-75.9 0,-47.85 18.7,-81.4 19.25,-34.1 49.5,-51.7 30.8,-18.15 64.9,-18.15 25.3,0 48.95,9.35 23.65,9.35 41.8,27.5 18.15,17.6 29.15,42.9 11,24.75 11.55,55.55 0,8.8 -6.6,14.85 -6.6,6.05 -15.4,6.05 h -217.25 l -9.9,-37.95 h 211.75 l -8.8,7.7 v -12.1 q -2.2,-22.55 -15.4,-38.5 -12.65,-16.5 -31.35,-25.3 -18.15,-8.8 -38.5,-8.8 -16.5,0 -33,6.05 -15.95,5.5 -29.15,18.7 -12.65,12.65 -20.9,33 -7.7,20.35 -7.7,48.95 0,31.9 12.65,56.1 13.2,24.2 36.3,38.5 23.1,13.75 53.9,13.75 19.25,0 33.55,-4.95 14.3,-4.95 24.75,-12.1 10.45,-7.7 17.6,-15.4 7.15,-4.95 13.75,-4.95 8.25,0 13.2,5.5 5.5,5.5 5.5,13.2 0,9.35 -8.8,16.5 -15.4,17.05 -41.8,30.25 -26.4,12.65 -56.1,12.65 z"
       id="path20" /><path
       id="path19"
       style="font-weight:500;font-size:550px;line-height:30.8;font-family:Quicksand;-inkscape-font-specification:'Quicksand Medium';fill:url(#linearGradient28);stroke:url(#linearGradient26);stroke-width:30;stroke-linecap:round;stroke-linejoin:round;stroke-dasharray:none;paint-order:stroke fill markers"
       d="m 1740.9004,1402.9258 c -8.8,0 -15.583,1.8333 -20.3496,5.5 -4.7667,3.6666 -7.1504,9.3488 -7.1504,17.0488 v 7.7012 c 0,7.7 2.1996,13.3821 6.5996,17.0488 4.4,3.6667 11.1849,5.5 20.3516,5.5 8.8,0 15.3988,-1.8333 19.7988,-5.5 4.7667,-3.6667 7.1504,-9.3488 7.1504,-17.0488 v -7.7012 c 0,-7.7 -2.1996,-13.3822 -6.5996,-17.0488 -4.4,-3.6667 -11.0008,-5.5 -19.8008,-5.5 z m -0.5488,93.5 c -6.2334,0 -11.5512,2.1996 -15.9512,6.5996 -4.0333,4.4 -6.0488,9.7159 -6.0488,15.9492 v 271.1504 c 0,10.2667 -1.6512,19.0671 -4.9512,26.4004 -3.3,7.7 -7.8833,13.7504 -13.75,18.1504 -5.8667,4.7666 -13.0159,8.2492 -21.4492,10.4492 -5.5,1.4667 -10.0834,3.8504 -13.75,7.1504 -3.6667,3.3 -5.5,7.6992 -5.5,13.1992 v 3.8516 c 0,5.5 2.0155,10.2655 6.0488,14.2988 3.6667,4.0333 8.6182,6.0508 14.8516,6.0508 13.5666,0 26.5821,-3.6667 39.0488,-11 12.4667,-7.3334 22.7341,-17.6008 30.8008,-30.8008 8.4333,-13.2 12.6504,-29.1496 12.6504,-47.8496 v -281.0508 c 0,-6.2333 -2.0175,-11.5492 -6.0508,-15.9492 -4.0334,-4.4 -9.3492,-6.5996 -15.9492,-6.5996 z" /><path
       style="font-weight:500;font-size:550px;line-height:30.8;font-family:Quicksand;-inkscape-font-specification:'Quicksand Medium';fill:#fbf7f6;fill-opacity:1;stroke:#fbf7f6;stroke-width:15;stroke-linecap:round;stroke-linejoin:round;stroke-opacity:1;paint-order:stroke fill markers"
       d="m 1526.9507,1786.8253 q -44,0 -77,-18.7 -33,-18.7 -51.7,-51.15 -18.15,-33 -18.15,-75.9 0,-47.85 18.7,-81.4 19.25,-34.1 49.5,-51.7 30.8,-18.15 64.9,-18.15 25.3,0 48.95,9.35 23.65,9.35 41.8,27.5 18.15,17.6 29.15,42.9 11,24.75 11.55,55.55 0,8.8 -6.6,14.85 -6.6,6.05 -15.4,6.05 h -217.25 l -9.9,-37.95 h 211.75 l -8.8,7.7 v -12.1 q -2.2,-22.55 -15.4,-38.5 -12.65,-16.5 -31.35,-25.3 -18.15,-8.8 -38.5,-8.8 -16.5,0 -33,6.05 -15.95,5.5 -29.15,18.7 -12.65,12.65 -20.9,33 -7.7,20.35 -7.7,48.95 0,31.9 12.65,56.1 13.2,24.2 36.3,38.5 23.1,13.75 53.9,13.75 19.25,0 33.55,-4.95 14.3,-4.95 24.75,-12.1 10.45,-7.7 17.6,-15.4 7.15,-4.95 13.75,-4.95 8.25,0 13.2,5.5 5.5,5.5 5.5,13.2 0,9.35 -8.8,16.5 -15.4,17.05 -41.8,30.25 -26.4,12.65 -56.1,12.65 z"
       id="path17" /><path
       style="font-weight:500;font-size:550px;line-height:30.8;font-family:Quicksand;-inkscape-font-specification:'Quicksand Medium';fill:#fbf7f6;fill-opacity:1;stroke:#fbf7f6;stroke-width:15;stroke-linecap:round;stroke-linejoin:round;stroke-opacity:1;paint-order:stroke fill markers"
       d="m 1292.1005,1374.3253 q 9.35,0 15.4,6.6 6.6,6.05 6.6,15.4 v 362.45 q 0,9.35 -6.6,15.95 -6.05,6.6 -15.4,6.6 -9.9,0 -15.95,-6.6 -6.05,-6.6 -6.05,-15.95 v -52.25 l 10.45,-3.85 q 0,13.2 -8.25,28.05 -8.25,14.3 -22.55,26.95 -14.3,12.65 -34.1,20.9 -19.25,8.25 -41.8,8.25 -36.85,0 -67.1,-19.25 -29.7,-19.25 -47.3,-52.8 -17.05,-33.55 -17.05,-76.45 0,-43.45 17.05,-77 17.6,-33.55 47.3,-52.25 29.7,-19.25 66,-19.25 23.1,0 43.45,7.7 20.35,7.7 35.2,20.9 15.4,13.2 24.2,29.15 8.8,15.95 8.8,31.9 l -14.3,-3.3 v -179.85 q 0,-9.35 6.05,-15.4 6.05,-6.6 15.95,-6.6 z m -113.3,371.8 q 27.5,0 48.4,-13.75 21.45,-14.3 33,-38.5 12.1,-24.75 12.1,-55.55 0,-31.35 -12.1,-55.55 -11.55,-24.2 -33,-37.95 -20.9,-14.3 -48.4,-14.3 -26.95,0 -48.4,14.3 -20.9,13.75 -33,37.95 -12.1,24.2 -12.1,55.55 0,30.25 12.1,55 12.1,24.2 33,38.5 21.45,14.3 48.4,14.3 z"
       id="path16" /><path
       style="font-weight:500;font-size:550px;line-height:30.8;font-family:Quicksand;-inkscape-font-specification:'Quicksand Medium';fill:#fbf7f6;fill-opacity:1;stroke:#fbf7f6;stroke-width:15;stroke-linecap:round;stroke-linejoin:round;stroke-opacity:1;paint-order:stroke fill markers"
       d="m 991.80045,1638.3253 q 0,42.9 -19.25,76.45 -18.7,33.55 -51.15,52.8 -31.9,19.25 -72.05,19.25 -40.15,0 -72.6,-19.25 -32.45,-19.25 -51.7,-52.8 -18.7,-33.55 -18.7,-76.45 0,-42.9 18.7,-76.45 19.25,-33.55 51.7,-52.8 32.45,-19.25 72.6,-19.25 40.15,0 72.05,19.25 32.45,19.25 51.15,52.8 19.25,33.55 19.25,76.45 z m -44,0 q 0,-31.9 -13.2,-56.1 -12.65,-24.2 -35.2,-37.95 -22,-13.75 -50.05,-13.75 -28.05,0 -50.6,13.75 -22,13.75 -35.2,37.95 -13.2,24.2 -13.2,56.1 0,31.35 13.2,55.55 13.2,24.2 35.2,38.5 22.55,13.75 50.6,13.75 28.05,0 50.05,-13.75 22.55,-14.3 35.2,-38.5 13.2,-24.2 13.2,-55.55 z"
       id="path15" /><path
       style="font-weight:500;font-size:550px;line-height:30.8;font-family:Quicksand;-inkscape-font-specification:'Quicksand Medium';fill:#fbf7f6;fill-opacity:1;stroke:#fbf7f6;stroke-width:15;stroke-linecap:round;stroke-linejoin:round;stroke-opacity:1;paint-order:stroke fill markers"
       d="m 651.9002,1421.6253 q 9.35,4.95 10.45,14.85 1.65,9.9 -4.95,18.15 -4.95,7.15 -12.65,7.7 -7.7,0.55 -15.4,-3.3 -18.15,-11 -39.05,-17.05 -20.9,-6.6 -44,-6.6 -32.45,0 -59.4,11.55 -26.95,11 -46.75,31.35 -19.8,20.35 -30.8,48.4 -11,28.05 -11,62.15 0,36.3 11.55,64.9 11.55,28.6 31.35,48.95 20.35,19.8 46.75,30.25 26.95,10.45 58.3,10.45 22.55,0 43.45,-6.05 20.9,-6.05 39.6,-17.6 7.7,-3.85 15.4,-2.75 7.7,1.1 13.2,7.7 6.6,8.8 4.95,18.7 -1.65,9.35 -10.45,13.75 -13.75,8.25 -31.35,15.4 -17.6,6.6 -36.85,10.45 -18.7,3.85 -37.95,3.85 -39.6,0 -74.8,-13.75 -35.2,-13.75 -62.15,-39.6 -26.95,-25.85 -42.9,-62.15 -15.4,-36.85 -15.4,-82.5 0,-42.9 14.85,-78.65 14.85,-35.75 41.25,-62.15 26.95,-26.4 62.15,-41.25 35.75,-14.85 77,-14.85 28.6,0 55.55,7.7 27.5,7.7 50.05,22 z"
       id="text9" /><path
       style="display:none;mix-blend-mode:normal;fill:url(#linearGradient7);fill-opacity:1;stroke:url(#linearGradient8);stroke-width:15;stroke-linecap:round;stroke-linejoin:round;stroke-dasharray:none;stroke-dashoffset:0;paint-order:stroke fill markers"
       d="M 972.65882,2550.1966 V 713.62552 h 205.27678 c 38.7318,0 75.1142,-6.29276 106.3228,-30.55488 69.0771,-53.70168 67.85,-156.92047 6.3162,-214.76372 -41.1608,-38.69224 -94.6002,-36.27516 -147.3782,-36.27516 H 869.49418 c -47.3859,0 -93.8005,-0.74357 -131.58762,32.27232 -10.13276,8.8534 -19.26635,18.75997 -26.82357,29.84398 -28.12692,41.25287 -22.65337,91.56059 -22.65337,138.72635 v 308.51084 1352.06405 353.0275 c 0,53.4545 -1.31653,104.2899 40.00266,144.938 7.16195,7.0457 14.52128,13.549 23.15932,18.8274 41.05068,25.0839 87.30225,21.5482 133.69308,21.5482 h 254.75372 c 53.1289,0 105.4205,2.6529 148.4307,-33.572 58.6089,-49.3627 65.1758,-143.4844 13.5025,-200.3994 -28.5043,-31.3955 -66.2424,-45.7729 -108.2454,-47.5818 -73.3743,-3.1596 -147.6137,-0.04 -221.06738,-0.04 M 2292.746,713.62552 V 2550.1966 h -148.4309 c -24.735,0 -50.0688,-1.5691 -74.7416,0.092 -38.0742,2.5643 -73.5606,13.7484 -100.8807,41.4109 -57.0964,57.8121 -52.5664,158.7488 11.4011,209.5905 42.3634,33.6709 94.0645,30.4999 145.2727,30.4999 h 253.701 c 45.2563,0 91.33,3.7558 131.5875,-20.5098 9.7219,-5.8598 18.2738,-12.9906 26.3177,-20.9011 42.0078,-41.3123 38.9499,-92.95 38.9499,-147.0085 V 2295.5199 944.49102 628.73325 c 0,-59.53566 3.9851,-116.54055 -45.2662,-160.29132 -39.0445,-34.68418 -82.8526,-36.41017 -132.6404,-36.41017 H 2127.472 c -57.9699,0 -113.2257,-2.64074 -157.8898,40.41622 -56.8911,54.84444 -53.8232,155.26998 6.3009,206.71411 31.8942,27.28958 70.5768,34.46343 111.5863,34.46343 z"
       id="path6"
       sodipodi:nodetypes="ccssssssssccsscssssscccscsssssssccsssssssc" /><path
       style="display:inline;mix-blend-mode:normal;fill:url(#linearGradient14);fill-opacity:1;stroke:url(#linearGradient15);stroke-width:15;stroke-linecap:round;stroke-linejoin:round;stroke-dasharray:none;stroke-dashoffset:0;stroke-opacity:1;paint-order:stroke fill markers"
       d="m 3025.1474,1340.8136 v 506.5354 h -40.2601 c -6.7091,0 -13.5806,-0.4327 -20.2728,0.025 -10.3272,0.7073 -19.9525,3.792 -27.3627,11.4213 -15.4868,15.9448 -14.2581,43.7838 3.0924,57.8061 11.4905,9.2865 25.5139,8.412 39.4035,8.412 h 68.8134 c 12.2753,0 24.7722,1.0359 35.6916,-5.6566 2.637,-1.6162 4.9566,-3.5829 7.1384,-5.7647 11.3941,-11.3942 10.5647,-25.636 10.5647,-40.5457 v -95.9386 -372.6205 -87.0875 c 0,-16.4202 1.0809,-32.1425 -12.2779,-44.2091 -10.5904,-9.5661 -22.4728,-10.0421 -35.9772,-10.0421 h -73.3819 c -15.7237,0 -30.7112,-0.7284 -42.8258,11.147 -15.4311,15.1263 -14.599,42.8242 1.709,57.0128 8.6509,7.5266 19.1432,9.5052 30.2665,9.5052 z"
       id="path14" /><path
       style="display:inline;mix-blend-mode:normal;fill:url(#linearGradient101);fill-opacity:1;stroke:url(#linearGradient11);stroke-width:15;stroke-linecap:round;stroke-linejoin:round;stroke-dasharray:none;stroke-dashoffset:0;stroke-opacity:1;paint-order:stroke fill markers"
       d="M 252.24816,1847.3484 V 1340.813 h 55.67892 c 10.50556,0 20.37388,-1.7356 28.83885,-8.4272 18.73633,-14.8112 18.40349,-43.2794 1.7132,-59.2328 -11.16443,-10.6716 -25.65924,-10.0049 -39.97463,-10.0049 h -74.23857 c -12.85286,0 -25.4423,-0.2051 -35.69161,8.9008 -2.7484,2.4419 -5.22577,5.1742 -7.27557,8.2312 -7.62911,11.3777 -6.14448,25.2528 -6.14448,38.2614 v 85.0889 372.9059 97.3666 c 0,14.7431 -0.35708,28.7637 10.85024,39.9746 1.9426,1.9433 3.93874,3.737 6.28174,5.1928 11.1345,6.9182 23.67969,5.9431 36.26267,5.9431 h 69.09898 c 14.41059,0 28.59409,0.7316 40.26012,-9.2593 15.89696,-13.6146 17.67814,-39.5738 3.66236,-55.2712 -7.73144,-8.659 -17.96744,-12.6244 -29.36031,-13.1233 -19.90193,-0.8715 -40.0385,-0.011 -59.96191,-0.011"
       id="path1" /><path
       style="display:none;opacity:1;mix-blend-mode:normal;fill:url(#linearGradient99);fill-opacity:1;stroke:url(#linearGradient2);stroke-width:15;stroke-linecap:round;stroke-linejoin:round;stroke-dasharray:none;paint-order:stroke fill markers"
       d="m 1564.2228,2114.4794 c -1.6314,12.1048 -7.3679,23.8637 -12.1505,35 -23.7725,55.3544 -76.4361,97.2163 -84.5602,159 -10.325,78.5219 53.2217,142.3047 131.7107,134.8303 37.2802,-3.5502 69.0833,-23.432 93.8302,-50.8303 80.0686,-88.6471 127.5144,-197.1233 148.5942,-313.9999 9.9336,-55.0771 15.7421,-112.1943 10.4058,-168 -3.7371,-39.0826 -13.6465,-78.7352 -33.2577,-113 -49.8084,-87.0255 -150.7182,-119.5262 -245.5725,-98.5757 -64.9804,14.3523 -120.823,59.2592 -145.5502,121.5757 -39.2414,98.8948 -7.5875,227.6781 91.5502,277.2468 13.8917,6.9459 29.4962,14.4634 45,16.7531 z"
       id="path1-1" /><path
       style="display:none;opacity:1;mix-blend-mode:normal;fill:url(#linearGradient5);fill-opacity:1;stroke:#ffffff;stroke-width:377.953;stroke-linecap:round;stroke-linejoin:round;stroke-dasharray:none;stroke-opacity:1;paint-order:stroke fill markers"
       d="m 1559.0087,2088.3689 c -1.7391,12.892 -7.8543,25.4155 -12.9527,37.276 -25.3419,58.9541 -81.4821,103.5382 -90.1427,169.3397 -11.0066,83.6281 56.7354,151.5587 140.406,143.5982 39.7414,-3.7811 73.644,-24.9557 100.0247,-54.1357 85.3545,-94.4118 135.9325,-209.9422 158.404,-334.4192 10.5894,-58.6587 16.7813,-119.4902 11.0928,-178.9249 -3.9839,-41.6241 -14.5475,-83.8552 -35.4532,-120.3483 -53.0967,-92.6848 -160.6684,-127.299 -261.7848,-104.9861 -69.2702,15.2857 -128.7994,63.1128 -155.159,129.4817 -41.832,105.3259 -8.0884,242.4839 97.5942,295.276 14.8087,7.3977 31.4434,15.404 47.9707,17.8426 z"
       id="path4" /></g></svg>
